<?xml version="1.0" standalone="no" ?>
<!DOCTYPE svg PUBLIC "-//W3C//DTD SVG 1.1//EN" "http://www.w3.org/Graphics/SVG/1.1/DTD/svg11.dtd">
<svg width="82px" height="92px" viewBox="0 0 82 92" style="background-color: #ffffff00" xmlns="http://www.w3.org/2000/svg" xmlns:xlink="http://www.w3.org/1999/xlink" version="1.1" >
<path stroke="none" fill="#d5c4f4" transform="matrix(0.133333 0 0 0.133333 -566.4 -618.133)" d="M 4306.83,4836 L 4306.83,5124 L 4556.25,5268 L 4805.67,5124 L 4805.67,4836 L 4556.25,4692 L 4306.83,4836 Z " />
<path stroke="none" fill="#7852dc" transform="matrix(0.133333 0 0 0.133333 -566.4 -618.133)" d="M 4294.96,4829.14 L 4317.68,4842.26 L 4317.68,5117.74 L 4294.96,5130.86 L 4294.96,4829.14 Z " />
<path stroke="none" fill="#7852dc" transform="matrix(0.133333 0 0 0.133333 -566.4 -618.133)" d="M 4352.19,4868.73 L 4374.87,4868.73 L 4374.87,5091.27 L 4352.19,5091.27 L 4352.19,4868.73 Z " />
<path stroke="none" fill="#7852dc" transform="matrix(0.133333 0 0 0.133333 -566.4 -618.133)" d="M 4294.96,5130.86 L 4317.68,5117.74 L 4556.25,5255.48 L 4556.25,5281.72 L 4294.96,5130.86 Z " />
<path stroke="none" fill="#7852dc" transform="matrix(0.133333 0 0 0.133333 -566.4 -618.133)" d="M 4556.25,5281.72 L 4556.25,5255.48 L 4794.82,5117.74 L 4817.54,5130.86 L 4556.25,5281.72 Z " />
<path stroke="none" fill="#7852dc" transform="matrix(0.133333 0 0 0.133333 -566.4 -618.133)" d="M 4561.92,5212.36 L 4550.58,5192.72 L 4743.3,5081.45 L 4754.64,5101.09 L 4561.92,5212.36 Z " />
<path stroke="none" fill="#7852dc" transform="matrix(0.133333 0 0 0.133333 -566.4 -618.133)" d="M 4817.54,5130.86 L 4794.82,5117.74 L 4794.82,4842.26 L 4817.54,4829.14 L 4817.54,5130.86 Z " />
<path stroke="none" fill="#7852dc" transform="matrix(0.133333 0 0 0.133333 -566.4 -618.133)" d="M 4817.54,4829.14 L 4794.82,4842.26 L 4556.25,4704.52 L 4556.25,4678.28 L 4817.54,4829.14 Z " />
<path stroke="none" fill="#7852dc" transform="matrix(0.133333 0 0 0.133333 -566.4 -618.133)" d="M 4754.64,4858.91 L 4743.3,4878.55 L 4550.58,4767.28 L 4561.92,4747.64 L 4754.64,4858.91 Z " />
<path stroke="none" fill="#7852dc" transform="matrix(0.133333 0 0 0.133333 -566.4 -618.133)" d="M 4556.25,4678.28 L 4556.25,4704.52 L 4317.68,4842.26 L 4294.96,4829.14 L 4556.25,4678.28 Z " />
</svg>
